<?xml version="1.0" encoding="UTF-8"?>
<svg preserveAspectRatio="xMidYMid slice" xmlns="http://www.w3.org/2000/svg" xmlns:xlink="http://www.w3.org/1999/xlink" width="480px" height="480px" viewBox="0 0 86 86" version="1.1">
  <title>Group</title>
  <desc>Created with Sketch.</desc>
  <defs>
    <linearGradient x1="74.378364%" y1="68.4234619%" x2="20.0025692%" y2="17.5340165%" id="linearGradient-1">
      <stop stop-color="#56AFAA" offset="0%"></stop>
      <stop stop-color="#009CDE" offset="100%"></stop>
    </linearGradient>
  </defs>
  <g id="Page-1" stroke="none" stroke-width="1" fill="none" fill-rule="evenodd">
    <g id="Group">
      <rect id="Rectangle" fill="url(#linearGradient-1)" x="0" y="0" width="86" height="86"></rect>
      <path d="M43.0007443,75 C30.1739644,67.3714525 14,56.2851959 14,36.7091281 L14,16.0388015 C19.9165597,13.8011538 29.0574919,11 42.9992557,11 C57.1017915,11 66.7801191,14.0490369 72,16.0388015 L72,36.7091281 C72,56.4504513 55.1985781,67.8270215 43.0007443,75" id="Fill-1" fill="#FFFFFE"></path>
      <path d="M32.2456642,64.8498103 C35.6948498,67.511208 39.3877279,69.8649511 43.0018746,72 C43.0348668,68.7877893 42.9306414,66.8944161 45.1298721,64.619996 C46.019912,63.6992562 46.9369454,62.7622069 47.7654998,61.9126354 C48.3901023,61.2728621 48.895483,60.7969241 49.1909133,60.7969241 C49.4016135,60.7969241 49.4953414,60.9059005 49.4953414,61.1853844 C49.4953414,61.4715402 49.6250607,62.5249793 50.2856548,63.7859925 C51.1067109,65.3531777 52.3214241,65.5548212 52.7098324,65.6437816 C62.1253593,58.6359284 70,49.4641143 70,36.4151107 C70,29.2508356 70,17.3976076 70,17.3976076 C67.6777983,16.6177217 58.1385506,13 42.9996251,13 C27.8606996,13 18.3222017,16.6177217 16,17.3976076 C16,17.3976076 16,29.2508356 16,36.4151107 C16,42.1508305 17.5221406,47.1370593 20.0272991,51.5198402 C20.2769902,48.8777172 22.0840635,47.6256 22.0840635,45.0301812 C22.0840635,43.2190963 21.5659358,42.0752142 21.5659358,40.5591813 C21.5659358,37.8177192 25.3098019,32.1776317 27.2510935,29.8802302 C27.30808,29.8127686 27.4340503,29.6518986 27.5900135,29.6518986 C27.7294805,29.6518986 27.8352056,29.747531 27.9199356,29.8765235 C28.1178888,30.1760234 28.2026188,30.3339281 28.4140689,30.3339281 C28.6270186,30.3339281 28.7094991,30.2167969 28.7094991,30.0299801 C28.7094991,29.5518182 28.150881,28.7556228 28.150881,25.6397859 C28.150881,23.4609982 28.6630101,22.9991456 30.0329367,21.6728947 C30.2833775,21.4304777 31.0496966,20.7024854 31.780774,20.7024854 C32.5943319,20.7024854 32.9969868,21.1784233 33.4986184,21.6817908 C34.3451685,22.5335863 35.5261397,24.0422059 35.7173445,24.2809162 C35.7705819,24.3476365 35.8193204,24.4091674 35.9347932,24.4091674 C36.3262008,24.4091674 36.6531236,24.2927776 38.3544719,24.2927776 C41.4444923,24.2927776 46.1023925,24.7724223 48.4965772,25.5471188 C49.7292861,25.9459578 49.9857256,26.2209936 50.3126484,26.2209936 C50.4723607,26.2209936 50.4858575,26.1179479 50.4858575,26.0356595 C50.4858575,25.8814616 50.1611842,25.6338552 50.1611842,25.424057 C50.1611842,25.2846857 50.2759071,25.1823813 50.3883805,25.1223331 C52.173709,24.1741638 53.6980991,23.4572915 55.0927698,23.4572915 C55.904828,23.4572915 56.3059833,24.152665 56.6471528,24.8398839 C56.9140897,25.3758701 57.1997723,26.0949665 57.1997723,26.8340789 C57.1997723,28.702988 56.4776928,29.842422 55.9018287,30.6415827 C56.1777636,30.9210665 56.5676715,31.3443696 56.8061152,31.6253361 C57.2297652,32.1257382 57.738895,32.7788556 57.738895,33.4579197 C57.738895,33.7507476 57.5941792,34.2111175 57.5116986,34.575855 C57.4742075,34.7396904 57.3287418,35.0681024 57.0408098,35.0621717 C56.7813711,35.0569824 56.713887,34.7767572 56.7041393,34.5284095 C56.7018898,34.4772573 56.7041393,34.3645742 56.7041393,34.3401101 C56.7041393,33.8026412 56.5534249,33.0724248 56.0480442,32.5609027 C55.4669314,31.9737642 54.9345571,31.5467545 54.2612161,31.5467545 C54.2214755,31.5467545 54.0782593,31.5467545 54.0310205,31.5467545 C52.9265312,31.5467545 52.4241499,32.0241751 52.1204716,32.3162617 C51.7890498,32.6357776 51.5311107,33.0627874 51.5311107,33.6380645 C51.5311107,33.9679592 51.7583071,34.3586435 52.0604857,34.956902 C52.2396934,35.3097781 52.6978352,36.1504536 52.9475263,36.5833941 C53.1657248,36.9607343 53.4454087,37.0934335 53.7588347,37.0934335 C54.5281531,37.0934335 55.1984948,36.9874224 55.1984948,36.7590908 C55.1984948,36.6968185 55.1647528,36.6441837 55.0597776,36.6441837 C55.0147882,36.6441837 54.9083133,36.6567864 54.8138356,36.6567864 C53.8090729,36.6567864 53.2714498,35.3928078 52.7675688,34.245219 C53.1514781,33.8752921 53.5863754,33.4957279 54.3751892,33.4957279 C55.375453,33.4957279 56.0322979,34.1599653 56.0322979,35.0251049 C56.0322979,35.4543387 55.8988294,35.8131455 55.820098,35.9740155 C55.7811072,36.0555625 55.7593624,36.1059734 55.7593624,36.1526776 C55.7593624,36.2876008 55.9325715,36.3150303 56.2062569,36.3773025 C56.302984,36.3995426 56.4889401,36.4432815 56.6021634,36.4751589 C56.896094,36.5604126 57.2087702,36.8109843 57.3414888,37.1616365 C57.4292181,37.3951574 57.6301707,37.9304023 57.6736604,38.0601362 C57.8393713,38.5501596 58.1070581,39.2618425 58.1070581,40.1166034 C58.1070581,40.9854497 58.0463224,41.2486241 57.8048794,42.1315558 C57.4959523,43.2598698 57.3602344,43.6891036 57.3092464,44.3088609 C57.4157213,44.5038323 57.4247192,44.5579499 57.4727078,44.6713744 C57.6451671,45.0301812 57.870114,45.6862639 57.870114,46.3964642 C57.870114,46.5862463 57.870114,46.9598799 57.870114,46.9813786 C57.870114,48.112658 57.4134718,48.9933657 56.9193385,49.6531551 C56.5346793,50.1661599 55.9835594,50.8897042 55.6671341,51.2907672 C55.4624325,51.5339256 55.1857478,51.7096223 54.8775706,51.7096223 C54.7306053,51.7096223 54.5573962,51.6606941 54.3841871,51.6176966 C54.1914826,51.570251 53.7820792,51.4679466 53.6073705,51.4242078 C52.9347793,51.2559244 52.6858381,50.8215013 52.4683894,50.2358455 C52.436147,50.1483678 52.3341711,49.9000201 52.3026785,49.8206971 C52.1414666,49.4129621 52.050738,49.1520117 51.7950484,49.1520117 C51.6045934,49.1520117 51.4216366,49.2750735 51.2319313,49.558264 C50.5593402,50.5583268 50.1941764,50.9208403 49.0109557,51.2092202 C48.5978033,51.3093006 47.7587514,51.4827734 47.2886124,51.5858191 C46.5800297,51.7414998 45.3143286,52.0691705 44.6019968,52.0691705 C44.4505325,52.0691705 44.2908202,52.0602744 44.1281086,52.0424823 C43.1570879,51.9075591 42.4672508,51.8438042 41.2570365,50.4159902 C39.5931794,48.4521901 39.7648888,48.1756716 39.6644126,45.5239112 C39.6531652,45.228118 39.5556882,44.8589325 39.2445117,44.8589325 C38.9655776,44.8589325 38.8448561,45.4216068 38.7428802,46.2185435 C38.6236583,47.15411 38.4054598,48.1260021 37.9398198,48.1260021 C37.6143966,48.1260021 37.3954483,48.0763325 36.8945666,47.9154625 C36.2894594,47.720491 34.7830651,47.2171236 33.9905022,46.9583972 C32.9122568,46.6055211 31.8797506,46.3267786 31.4635989,45.3815746 C31.2678951,44.9367728 30.9064804,44.1094414 30.7227738,43.6794662 C30.5938042,43.377001 30.4993265,43.2190963 30.298374,43.2190963 C30.0111918,43.2190963 29.9474569,43.5556631 29.9152145,43.8210615 C29.879223,44.1220441 29.8019912,44.8166763 29.7645,45.2496168 C29.6025383,47.0970271 29.2283766,47.8828437 28.4380632,48.9133013 C28.0758987,49.3847913 27.7309802,49.8659186 27.3305747,50.3915261 C26.5020204,51.477584 26.0026383,52.5895886 26.0288821,54.6942427 C26.0303817,54.8306486 26.0198842,55.6149825 26.0288821,55.9760134 C26.1023647,59.1081597 26.9061749,60.6434674 32.2456642,64.8498103 Z M51.3713984,55.252469 C51.1209576,55.3132586 50.6298235,55.4333551 48.4418401,55.4333551 C45.1276226,55.4333551 44.5652554,54.6282638 44.5652554,53.9892318 C44.5652554,52.92319 49.3183832,52.1707335 51.1914409,52.1707335 C52.9857672,52.1707335 53.7783301,52.7408212 53.7783301,53.1752444 C53.7783301,53.6778705 52.9692711,54.8706808 51.3713984,55.252469 Z M44.9536637,35.0065715 C44.9536637,34.251891 44.0943666,33.1458171 42.5962203,33.1458171 C41.2637849,33.1458171 40.2462752,34.1399492 39.980088,34.9168698 C40.2995126,35.527731 40.60694,36.1726937 41.8846383,36.5552233 C42.0533485,36.6056342 42.2228085,36.6100822 42.2228085,36.7524188 C42.2228085,36.9548036 42.0068595,37.0563667 41.551717,37.0563667 C40.1038088,37.0563667 39.2430121,36.4714523 38.8606024,35.9769809 C38.4864407,36.0288744 38.053043,36.1726937 37.5116709,36.1919684 C37.0685255,36.2082778 36.8660733,35.91545 36.8660733,35.5247657 C36.8660733,35.2727113 36.9425552,34.9954515 37.0940195,34.6870555 C37.1772498,34.5172895 37.2664787,34.3408514 37.3317133,34.2155656 C37.5566602,33.7804011 37.9000791,32.8114744 39.222017,32.0664313 C39.3757307,31.9796949 39.7753864,31.7409846 39.980088,31.6216294 C40.7276615,31.1872063 41.2937779,31.0841605 42.1838177,31.0841605 C42.2520516,31.0841605 42.7461849,31.0841605 42.8361637,31.0841605 C43.9024119,31.0841605 44.4475332,31.3806951 44.9176722,31.7713794 C45.8729467,32.566092 46.3985726,32.9982912 46.3985726,33.5883949 C46.3985726,34.2437363 46.3633309,34.7448798 45.8339559,35.4358053 C45.3788133,36.0251677 44.7137204,36.4173347 44.283322,36.4173347 C44.1618507,36.4173347 44.126609,36.3520971 44.126609,36.2846355 C44.126609,36.1949338 44.2270853,36.1504536 44.3313107,36.0674239 C44.6829776,35.7849747 44.8419401,35.2845727 44.9536637,35.0065715 Z M31.6150631,30.7816953 C31.9434856,30.7816953 32.1939264,30.5667077 32.6903092,30.0240495 C33.800797,28.8104817 34.8730439,28.6481291 34.8730439,28.1291936 C34.8730439,27.898638 34.7230793,27.6725303 34.5663663,27.4308547 C33.3831456,25.6027191 32.877765,24.615259 32.1729314,23.2882668 C31.9172418,22.8078808 31.5850702,22.4787274 31.33163,22.4787274 C30.9222267,22.4787274 30.4895788,22.9509587 30.2398878,23.3557284 C29.8867212,23.9265574 29.5350542,24.5700374 29.5350542,25.1549519 C29.5350542,26.0386249 29.7547524,27.6517729 30.1259147,28.6851959 C30.52707,29.8009072 31.1096824,30.7816953 31.6150631,30.7816953 Z M53.0779955,28.3775413 C53.024758,28.3478878 52.8358027,28.2796849 52.8358027,28.0943508 C52.8358027,27.8808459 52.9925157,27.6599276 53.3104406,27.2388485 C54.0422678,26.2684392 55.0470306,25.0800769 55.4151936,25.0800769 C55.5951511,25.0800769 55.7076246,25.2016561 55.9295722,25.6182871 C56.061541,25.8651522 56.1747643,26.2773352 56.1747643,26.6687608 C56.1747643,27.9579449 55.7248705,28.863858 55.028285,29.8876436 C54.681117,29.5577489 54.0347696,28.9194582 53.0779955,28.3775413 Z M51.7897996,47.9354786 C51.7897996,47.4988315 52.1534638,46.8205086 52.1534638,46.2140954 C52.1534638,45.4935164 51.2596748,45.2644435 50.5653387,45.1695524 C49.1046836,44.9693916 48.6172987,45.0346292 48.6172987,44.7158545 C48.6172987,44.4956776 48.8137523,44.2658633 49.0799395,43.8877818 C49.4728467,43.3295554 50.4086257,43.1182746 50.9065082,43.050813 C51.5626033,42.9618526 52.2891817,42.8751162 53.1597262,42.8751162 C54.1352458,42.8751162 54.9638002,43.0189355 55.3447103,43.0849144 C56.2399989,43.2383711 56.379466,43.6090393 56.379466,44.0241877 C56.379466,44.113148 56.379466,44.335549 56.379466,44.4393361 C56.379466,44.8581911 56.0322979,45.0731787 55.4076954,45.2081019 C55.2517322,45.2414621 55.0327839,45.2807529 54.9278087,45.3022517 C54.4749156,45.3949187 53.9140481,45.4838791 53.715345,46.0495188 C53.2886957,47.2630865 52.546371,48.2149624 51.9967508,48.1904983 C51.8955247,48.1860503 51.7897996,48.110434 51.7897996,47.9354786 L51.7897996,47.9354786 Z" id="Fill-2" fill="#1E407C"></path>
      <path d="M48.9477599,64.0015699 C49.0241944,63.1761301 49.3936277,61.8003972 49.3936277,61.2390392 C49.3936277,60.9609419 49.299958,60.8525061 49.0893885,60.8525061 C48.7941416,60.8525061 48.2890746,61.3260828 47.6648597,61.9626821 C46.8368195,62.8080386 45.9203552,63.7404388 45.0308677,64.6566106 C42.8330018,66.9197465 42.9371625,68.8037261 42.9041907,72 C45.3478459,70.5505012 47.5809316,69.1570645 49.2355133,68.0468886 C48.989724,66.7146775 48.7851493,65.7594099 48.9477599,64.0015699 Z M25.9417316,56.0555135 C25.9327393,55.6962739 25.9432304,54.9158313 25.9417316,54.7801021 C25.9155041,52.6858899 26.4145763,51.5794023 27.2426165,50.4987327 C27.6427734,49.9757329 27.9874779,49.4969926 28.3494177,49.0278419 C29.1392406,48.0024967 29.5131701,47.2205788 29.6750313,45.382334 C29.7124992,44.9515415 29.789683,44.2603556 29.8256522,43.9608663 C29.8578746,43.6967846 29.92157,43.3618876 30.2085739,43.3618876 C30.4094018,43.3618876 30.5038208,43.5190089 30.6327103,43.8199735 C30.816303,44.2478154 31.1774933,45.0710422 31.3730757,45.5136372 C31.7889692,46.4541517 32.8208346,46.7315113 33.8984109,47.0826367 C34.6904819,47.3400794 36.1959413,47.8409495 36.8006729,48.0349537 C37.3012438,48.1950255 37.5200562,48.2444486 37.8452774,48.2444486 C38.3106285,48.2444486 38.5286916,47.2773785 38.6478395,46.3464536 C38.7497521,45.5534708 38.8703987,44.993588 39.1491597,44.993588 C39.4601431,44.993588 39.5575596,45.3609419 39.5688,45.6552676 C39.6692139,48.2938718 39.497611,48.5690183 41.1604356,50.5230755 C42.3698988,51.9438056 43.0593078,52.0072442 44.0297259,52.141498 C43.6692849,52.0352752 43.2061819,51.6251371 43.2061819,50.7613391 C43.2061819,50.6034802 43.2061819,49.9167203 43.2061819,49.8127104 C43.2061819,49.3383961 43.2638824,48.8559675 43.5021781,48.3101002 C43.6145818,48.0533951 43.7464687,47.589408 43.8701127,47.3054095 C44.0814316,46.8215056 43.9810176,46.6990543 43.9810176,46.3582561 C43.9810176,45.9982788 43.8603711,45.6412521 43.571119,44.7781918 C43.4227462,44.3348591 43.221169,43.6901456 43.0285841,43.1597692 C42.4261006,41.5052014 42.1825593,41.1149801 40.1712835,40.8531114 C39.5260866,40.7682807 36.7047551,40.3751088 36.1150107,40.292491 C33.8586949,39.9775109 32.0917096,39.8720257 31.1722478,38.3834311 C30.0736896,36.606412 30.1845945,34.4391716 29.1280002,34.4391716 C28.6274294,34.4391716 28.3614074,34.99094 28.3614074,35.7957254 C28.3614074,36.6410819 28.6858792,38.0094382 28.6858792,40.3905996 C28.6858792,42.4486665 28.4910463,43.0225648 27.2725908,44.5384528 C26.9563619,44.9316247 26.5307267,45.5099489 26.2579606,45.8463212 C25.3512378,46.9668243 24.9495821,47.5982599 25.0050346,48.9039153 C25.1474126,52.2846037 25.6914462,54.7675619 25.9417316,56.0555135 Z M50.163218,41.7442028 C50.2516422,41.961812 50.3250793,42.2089276 50.3250793,42.3933422 C50.3250793,42.8079062 50.2209185,42.9347834 49.9886177,43.1789484 C49.8499865,43.3013997 49.6956189,43.4297522 49.5547396,43.5588424 C49.3239375,43.6776054 49.1171148,43.8310384 48.9784836,44.0272555 C48.7124617,44.4034613 48.51613,44.6321354 48.51613,44.85122 C48.51613,44.9198222 48.53936,44.969983 48.589567,45.0098165 C48.2665939,44.7745035 48.1384537,44.4115756 48.1384537,44.0884812 C48.1384537,43.7993191 48.2343715,43.6458861 48.2343715,43.3736902 C48.2343715,43.1435408 48.168428,42.9178173 48.1287121,42.7872517 C47.6783481,41.3045584 46.9199982,39.5400794 46.4531484,38.3413845 C45.9773063,37.1190845 45.6026275,36.4485531 45.0653381,36.4485531 C44.7663444,36.4485531 44.5003225,36.5938718 44.1855923,36.5938718 C44.6149742,36.5931341 45.2804038,36.2036505 45.7345145,35.617212 C46.2635609,34.9297144 46.2987808,34.4310573 46.2987808,33.7789673 C46.2987808,33.5023454 46.1826303,33.2611311 45.9600711,33 C46.6412372,33.6838093 47.0773633,34.5542463 47.5389676,35.5176281 C48.5506004,37.6288065 49.4273488,39.940628 50.163218,41.7442028 Z M57.2349059,37.3344808 L57.2349059,37.3344808 C57.3225807,37.5668432 57.5234086,38.0994326 57.5668713,38.2285228 C57.7324793,38.716115 58,39.4242671 58,40.2747872 C58,41.1393229 57.939302,41.4011916 57.6980089,42.2797428 C57.3892735,43.4024589 57.2536398,43.8295631 57.2026835,44.4462455 C57.1165074,44.2721581 55.4933988,41.5140533 55.3697548,41.2905428 C55.2453614,41.065557 55.14195,40.8479478 55.14195,40.588292 C55.14195,40.3072442 55.2640953,40.1375828 55.6110479,39.9229242 C55.81862,39.7945716 56.0876394,39.642614 56.2697333,39.5504067 C57.105267,39.1292037 57.3060948,38.6084169 57.3068442,38.0507471 C57.3068442,37.8169094 57.2723738,37.5771704 57.2349059,37.3344808 L57.2349059,37.3344808 Z" id="Fill-3" fill="#96BEE6"></path>
    </g>
  </g>
</svg>
